<?xml version="1.0" encoding="UTF-8"?>
<svg xmlns="http://www.w3.org/2000/svg" xmlns:xlink="http://www.w3.org/1999/xlink" width="24px" height="24px" viewBox="0 0 24 24" version="1.1">
<defs>
<linearGradient id="linear0" gradientUnits="userSpaceOnUse" x1="9.858" y1="9.858" x2="38.142" y2="38.142" gradientTransform="matrix(0.5,0,0,0.5,0,0)">
<stop offset="0" style="stop-color:rgb(20%,74.509804%,94.117647%);stop-opacity:1;"/>
<stop offset="1" style="stop-color:rgb(3.921569%,52.156863%,85.098039%);stop-opacity:1;"/>
</linearGradient>
<filter id="alpha" filterUnits="objectBoundingBox" x="0%" y="0%" width="100%" height="100%">
  <feColorMatrix type="matrix" in="SourceGraphic" values="0 0 0 0 1 0 0 0 0 1 0 0 0 0 1 0 0 0 1 0"/>
</filter>
<mask id="mask0">
  <g filter="url(#alpha)">
<rect x="0" y="0" width="24" height="24" style="fill:rgb(0%,0%,0%);fill-opacity:0.0509804;stroke:none;"/>
  </g>
</mask>
<clipPath id="clip1">
  <rect x="0" y="0" width="24" height="24"/>
</clipPath>
<g id="surface5" clip-path="url(#clip1)">
<path style=" stroke:none;fill-rule:nonzero;fill:rgb(0%,0%,0%);fill-opacity:1;" d="M 5.058594 11.734375 C 9.136719 9.886719 13.925781 7.882812 14.664062 7.589844 C 16.289062 6.953125 17 7.605469 16.886719 8.648438 C 16.75 9.925781 16.105469 13.640625 15.707031 16.304688 C 15.472656 17.863281 14.628906 18.34375 13.675781 17.738281 C 12.953125 17.277344 10.46875 15.652344 9.816406 15.097656 C 9.371094 14.71875 9.058594 14.292969 9.375 13.859375 C 9.46875 13.734375 9.707031 13.476562 9.835938 13.351562 C 10.496094 12.710938 10.40625 12.574219 9.609375 13.144531 C 9.515625 13.214844 8.964844 13.613281 8.738281 13.761719 C 8.183594 14.132812 7.671875 14.152344 6.804688 13.859375 C 6.097656 13.617188 5.417969 13.433594 4.988281 13.246094 C 4.398438 12.992188 4.171875 12.136719 5.058594 11.734375 Z M 5.058594 11.734375 "/>
</g>
<mask id="mask1">
  <g filter="url(#alpha)">
<rect x="0" y="0" width="24" height="24" style="fill:rgb(0%,0%,0%);fill-opacity:0.0705882;stroke:none;"/>
  </g>
</mask>
<clipPath id="clip2">
  <rect x="0" y="0" width="24" height="24"/>
</clipPath>
<g id="surface8" clip-path="url(#clip2)">
<path style=" stroke:none;fill-rule:nonzero;fill:rgb(0%,0%,0%);fill-opacity:1;" d="M 5.417969 11.796875 C 9.203125 10.101562 13.859375 8.164062 14.539062 7.890625 C 16.171875 7.230469 16.773438 7.621094 16.597656 8.894531 C 16.433594 10.074219 15.855469 13.722656 15.449219 16.167969 C 15.210938 17.605469 14.515625 17.921875 13.605469 17.335938 C 13.035156 16.96875 10.742188 15.457031 10.1875 15.019531 C 9.757812 14.679688 9.3125 14.289062 9.832031 13.71875 C 10.007812 13.53125 10.96875 12.601562 11.6875 11.914062 C 12.101562 11.511719 11.953125 11.316406 11.453125 11.660156 C 10.53125 12.289062 9.023438 13.289062 8.753906 13.472656 C 8.242188 13.816406 7.757812 13.898438 6.921875 13.636719 C 6.261719 13.429688 5.621094 13.226562 5.289062 13.097656 C 4.546875 12.808594 4.539062 12.1875 5.417969 11.796875 Z M 5.417969 11.796875 "/>
</g>
</defs>
<g id="surface1">
<path style=" stroke:none;fill-rule:nonzero;fill:url(#linear0);" d="M 22 12 C 22 17.523438 17.523438 22 12 22 C 6.476562 22 2 17.523438 2 12 C 2 6.476562 6.476562 2 12 2 C 17.523438 2 22 6.476562 22 12 Z M 22 12 "/>
<use xlink:href="#surface5" mask="url(#mask0)"/>
<use xlink:href="#surface8" mask="url(#mask1)"/>
<path style=" stroke:none;fill-rule:nonzero;fill:rgb(100%,100%,100%);fill-opacity:1;" d="M 5.777344 11.859375 C 9.273438 10.320312 13.792969 8.445312 14.417969 8.1875 C 16.054688 7.507812 16.558594 7.636719 16.308594 9.140625 C 16.128906 10.222656 15.609375 13.800781 15.195312 16.027344 C 14.949219 17.351562 14.398438 17.507812 13.53125 16.933594 C 13.117188 16.660156 11.011719 15.269531 10.558594 14.941406 C 10.140625 14.644531 9.566406 14.289062 10.285156 13.582031 C 10.542969 13.332031 12.222656 11.726562 13.53125 10.476562 C 13.703125 10.3125 13.488281 10.042969 13.289062 10.175781 C 11.527344 11.347656 9.078125 12.96875 8.765625 13.183594 C 8.296875 13.5 7.84375 13.648438 7.035156 13.414062 C 6.421875 13.238281 5.824219 13.027344 5.589844 12.949219 C 4.691406 12.640625 4.90625 12.242188 5.777344 11.859375 Z M 5.777344 11.859375 "/>
</g>
</svg>
